<svg width="744" height="540" viewBox="0 0 744 540" fill="none" xmlns="http://www.w3.org/2000/svg">
<g clip-path="url(#clip0_101_2)">
<path d="M474.114 404.286V534.286H148.415C111.306 534.286 81.1142 505.126 81.1142 469.286C81.1142 433.446 111.306 404.286 148.415 404.286H474.114Z" fill="#F2F2F2"/>
<path d="M482.114 533.286C482.114 534.612 481.587 535.883 480.649 536.821C479.712 537.759 478.44 538.285 477.114 538.286H142.614C124.447 538.286 107.024 531.069 94.1774 518.223C81.3311 505.377 74.1142 487.953 74.1142 469.786C74.1142 451.619 81.3311 434.195 94.1774 421.349C107.024 408.503 124.447 401.286 142.614 401.286H477.114C478.44 401.286 479.712 401.813 480.65 402.75C481.587 403.688 482.114 404.96 482.114 406.286C482.114 407.612 481.587 408.884 480.65 409.822C479.712 410.759 478.44 411.286 477.114 411.286H142.614C127.099 411.286 112.219 417.449 101.248 428.42C90.2775 439.391 84.1142 454.271 84.1142 469.786C84.1142 485.301 90.2775 500.181 101.248 511.152C112.219 522.123 127.099 528.286 142.614 528.286H477.114C478.44 528.287 479.712 528.813 480.649 529.751C481.587 530.689 482.114 531.96 482.114 533.286Z" fill="#CCCCCC"/>
<path d="M474.114 434.286H124.114C123.849 434.286 123.595 434.181 123.407 433.993C123.22 433.806 123.114 433.551 123.114 433.286C123.114 433.021 123.22 432.766 123.407 432.579C123.595 432.391 123.849 432.286 124.114 432.286H474.114C474.379 432.286 474.634 432.391 474.821 432.579C475.009 432.766 475.114 433.021 475.114 433.286C475.114 433.551 475.009 433.806 474.821 433.993C474.634 434.181 474.379 434.286 474.114 434.286Z" fill="#CCCCCC"/>
<path d="M474.114 458.286H124.114C123.849 458.286 123.595 458.181 123.407 457.993C123.22 457.806 123.114 457.551 123.114 457.286C123.114 457.021 123.22 456.766 123.407 456.579C123.595 456.391 123.849 456.286 124.114 456.286H474.114C474.379 456.286 474.634 456.391 474.821 456.579C475.009 456.766 475.114 457.021 475.114 457.286C475.114 457.551 475.009 457.806 474.821 457.993C474.634 458.181 474.379 458.286 474.114 458.286Z" fill="#CCCCCC"/>
<path d="M474.114 482.286H124.114C123.849 482.286 123.595 482.181 123.407 481.993C123.22 481.806 123.114 481.551 123.114 481.286C123.114 481.021 123.22 480.766 123.407 480.579C123.595 480.391 123.849 480.286 124.114 480.286H474.114C474.379 480.286 474.634 480.391 474.821 480.579C475.009 480.766 475.114 481.021 475.114 481.286C475.114 481.551 475.009 481.806 474.821 481.993C474.634 482.181 474.379 482.286 474.114 482.286Z" fill="#CCCCCC"/>
<path d="M474.114 506.286H124.114C123.849 506.286 123.595 506.181 123.407 505.993C123.22 505.806 123.114 505.551 123.114 505.286C123.114 505.021 123.22 504.766 123.407 504.579C123.595 504.391 123.849 504.286 124.114 504.286H474.114C474.379 504.286 474.634 504.391 474.821 504.579C475.009 504.766 475.114 505.021 475.114 505.286C475.114 505.551 475.009 505.806 474.821 505.993C474.634 506.181 474.379 506.286 474.114 506.286Z" fill="#CCCCCC"/>
<path d="M725.832 428.757L644.267 529.985L390.652 325.635C361.756 302.352 356.541 260.703 379.028 232.795C401.515 204.887 443.32 201.124 472.216 224.407L725.832 428.757Z" fill="#F2F2F2"/>
<path d="M651.124 534.226C650.291 535.258 649.083 535.918 647.765 536.059C646.447 536.201 645.126 535.814 644.093 534.982L383.625 325.11C369.478 313.711 360.439 297.16 358.496 279.097C356.553 261.034 361.865 242.939 373.263 228.792C384.662 214.646 401.213 205.606 419.276 203.663C437.34 201.72 455.435 207.032 469.581 218.431L730.05 428.303C730.562 428.715 730.987 429.224 731.302 429.8C731.617 430.376 731.816 431.009 731.886 431.662C731.957 432.315 731.898 432.976 731.713 433.606C731.528 434.236 731.221 434.824 730.808 435.335C730.396 435.847 729.887 436.272 729.311 436.587C728.734 436.902 728.101 437.1 727.448 437.17C726.795 437.24 726.135 437.181 725.505 436.995C724.874 436.81 724.287 436.502 723.776 436.09L463.307 226.218C457.325 221.394 450.452 217.796 443.08 215.629C435.707 213.463 427.98 212.77 420.34 213.59C412.699 214.411 405.295 216.728 398.551 220.411C391.806 224.093 385.854 229.068 381.032 235.052C376.211 241.035 372.616 247.91 370.452 255.284C368.288 262.657 367.598 270.384 368.422 278.024C369.245 285.664 371.566 293.067 375.251 299.81C378.936 306.553 383.913 312.504 389.899 317.323L650.367 527.196C651.4 528.028 652.059 529.236 652.201 530.554C652.343 531.872 651.955 533.193 651.124 534.226V534.226Z" fill="#CCCCCC"/>
<path d="M707.009 452.117L434.471 232.52C434.369 232.438 434.284 232.336 434.221 232.221C434.158 232.105 434.118 231.979 434.104 231.848C434.09 231.718 434.102 231.586 434.139 231.46C434.176 231.334 434.237 231.216 434.32 231.114C434.402 231.012 434.504 230.927 434.619 230.864C434.734 230.801 434.861 230.761 434.991 230.747C435.122 230.733 435.254 230.745 435.38 230.782C435.506 230.819 435.623 230.88 435.726 230.963L708.264 450.56C708.366 450.642 708.451 450.744 708.515 450.859C708.578 450.975 708.617 451.101 708.632 451.232C708.646 451.362 708.634 451.495 708.597 451.621C708.56 451.747 708.498 451.865 708.416 451.967C708.334 452.069 708.232 452.154 708.116 452.217C708.001 452.28 707.874 452.32 707.744 452.334C707.613 452.348 707.481 452.336 707.355 452.299C707.229 452.262 707.111 452.2 707.009 452.117V452.117Z" fill="#CCCCCC"/>
<path d="M691.951 470.806L419.413 251.208C419.207 251.042 419.075 250.8 419.047 250.537C419.019 250.273 419.096 250.009 419.263 249.803C419.429 249.597 419.67 249.465 419.934 249.436C420.197 249.408 420.461 249.485 420.668 249.651L693.206 469.248C693.308 469.331 693.393 469.432 693.456 469.548C693.52 469.663 693.559 469.789 693.573 469.92C693.588 470.051 693.576 470.183 693.539 470.309C693.502 470.435 693.44 470.553 693.358 470.655C693.275 470.758 693.174 470.843 693.058 470.906C692.943 470.969 692.816 471.008 692.686 471.022C692.555 471.036 692.423 471.024 692.297 470.987C692.171 470.95 692.053 470.888 691.951 470.806V470.806Z" fill="#CCCCCC"/>
<path d="M676.893 489.494L404.355 269.897C404.148 269.73 404.016 269.489 403.988 269.225C403.959 268.961 404.037 268.697 404.203 268.491C404.37 268.284 404.611 268.152 404.875 268.124C405.139 268.095 405.403 268.173 405.61 268.339L678.148 487.937C678.25 488.019 678.335 488.121 678.398 488.236C678.461 488.351 678.5 488.478 678.514 488.608C678.528 488.739 678.517 488.871 678.48 488.997C678.443 489.123 678.381 489.24 678.299 489.343C678.216 489.445 678.115 489.53 677.999 489.593C677.884 489.656 677.758 489.695 677.627 489.71C677.497 489.724 677.364 489.712 677.238 489.675C677.112 489.638 676.995 489.576 676.893 489.494V489.494Z" fill="#CCCCCC"/>
<path d="M661.835 508.182L389.297 288.585C389.194 288.503 389.109 288.401 389.046 288.286C388.983 288.17 388.944 288.044 388.93 287.913C388.916 287.783 388.927 287.651 388.964 287.525C389.001 287.399 389.063 287.281 389.145 287.179C389.228 287.077 389.329 286.992 389.445 286.929C389.56 286.866 389.686 286.826 389.817 286.812C389.948 286.798 390.08 286.81 390.206 286.847C390.332 286.884 390.449 286.945 390.551 287.028L663.089 506.625C663.192 506.707 663.277 506.809 663.34 506.924C663.403 507.04 663.443 507.166 663.457 507.297C663.471 507.427 663.46 507.56 663.423 507.686C663.386 507.812 663.324 507.929 663.242 508.032C663.159 508.134 663.057 508.219 662.942 508.282C662.827 508.345 662.7 508.385 662.569 508.399C662.439 508.413 662.307 508.401 662.18 508.364C662.054 508.326 661.937 508.265 661.835 508.182V508.182Z" fill="#CCCCCC"/>
<path d="M743 539.286H1C0.734784 539.286 0.480429 539.181 0.292892 538.993C0.105356 538.806 0 538.551 0 538.286C0 538.021 0.105356 537.766 0.292892 537.579C0.480429 537.391 0.734784 537.286 1 537.286H743C743.265 537.286 743.52 537.391 743.707 537.579C743.895 537.766 744 538.021 744 538.286C744 538.551 743.895 538.806 743.707 538.993C743.52 539.181 743.265 539.286 743 539.286Z" fill="#CCCCCC"/>
</g>
<defs>
<clipPath id="clip0_101_2">
<rect width="744" height="539.286" fill="white"/>
</clipPath>
</defs>
</svg>
