<svg width="340" height="404" viewBox="0 0 340 404" fill="none" xmlns="http://www.w3.org/2000/svg">
<g clip-path="url(#clip0_1_2)">
<path d="M138.785 189.107C152.053 178.758 170.455 177.584 187.02 180.533C195.332 182.014 203.455 184.407 211.242 187.668C213.679 188.69 216.17 189.861 217.842 191.903C221.717 196.621 219.603 204.032 215.414 208.473C211.225 212.914 205.465 215.491 200.635 219.224C196.429 222.474 192.935 226.598 188.568 229.624C184.201 232.65 178.458 234.495 173.555 232.443C168.317 230.25 165.576 224.365 160.738 221.392C153.183 216.749 143.026 218.492 136.138 212.105C128.011 204.575 130.717 195.402 138.785 189.107Z" fill="#34190D"/>
<path d="M336.756 392.697C325.411 388.397 312.956 389.559 300.973 389.553L260.36 389.536L182.035 389.501C155.928 389.489 129.82 389.526 103.711 389.613C90.17 389.642 76.638 389.713 63.099 389.942C51.238 390.142 38.699 389.116 27.552 393.554C26.9848 393.734 26.4895 394.089 26.1379 394.569C25.7864 395.049 25.5968 395.629 25.5968 396.223C25.5968 396.818 25.7864 397.398 26.1379 397.878C26.4895 398.358 26.9848 398.713 27.552 398.893C38.695 403.331 51.238 402.303 63.099 402.504C76.639 402.734 90.17 402.804 103.711 402.834C129.82 402.89 155.928 402.927 182.035 402.946L260.36 402.911L300.973 402.893C312.953 402.887 325.411 404.046 336.756 399.749C337.508 399.515 338.165 399.046 338.632 398.412C339.099 397.778 339.351 397.011 339.351 396.223C339.351 395.435 339.099 394.668 338.632 394.034C338.165 393.4 337.508 392.931 336.756 392.697V392.697Z" fill="#E8E9E9"/>
<path d="M313.152 209.943C313.201 209.768 313.252 209.592 313.301 209.418C314.136 206.635 316.293 203.93 317.539 201.273C318.945 198.276 320.17 195.196 321.207 192.052C321.68 190.864 321.902 189.59 321.861 188.312C321.653 186.134 321.079 184.525 317.915 183.098C317.208 182.779 310.262 180.398 310.238 181.052C310.407 176.457 312.009 172.876 312.327 167.518C312.345 167.226 312.264 166.936 312.098 166.694C311.932 166.453 311.69 166.274 311.411 166.186C310.811 166.054 310.297 166.607 309.971 167.125C309.22 168.319 303.901 188.053 303.123 187.918C302.372 187.787 301.011 182.818 300.708 182.029C300.425 181.079 299.905 180.217 299.196 179.524C298.832 179.195 298.361 179.009 297.87 179.001C297.379 178.994 296.902 179.164 296.528 179.482C296.528 183.409 297.451 186.932 297.934 190.823C298.44 194.894 297.707 198.768 299.148 202.655C299.618 204.265 299.615 205.977 299.142 207.586C298.523 210.366 296.987 213.67 297.895 216.514C298.768 219.252 301.949 220.844 304.789 220.407C306.201 220.119 307.526 219.506 308.661 218.618C309.796 217.729 310.708 216.589 311.327 215.288C312.11 213.571 312.722 211.781 313.152 209.943V209.943Z" fill="#F8A38C"/>
<path d="M222.362 212.86C222.362 212.86 236.241 214.088 277.672 262.644C277.672 262.644 287.761 238.194 298.929 206.222L313.352 210.506C313.352 210.506 314.937 287.756 283.293 293.255C251.649 298.754 210.701 260.522 210.701 260.522C210.701 260.522 206.476 215.819 222.362 212.86Z" fill="#34190D"/>
<path d="M191.768 368.533C191.768 368.533 256.619 374.119 256.961 390.866C257.303 407.613 206.926 397.266 187.983 389.376C187.983 389.376 207.136 389.098 208.532 382.114C209.928 375.13 191.768 368.533 191.768 368.533Z" fill="#C8581A"/>
<path d="M145.209 268.886C138.044 276.716 130.888 284.557 123.739 292.41C119.252 297.327 113.734 302.769 107.198 304.844C99.766 307.203 88.426 305.758 81.262 303.111C73.038 300.072 62.818 294.481 63.586 285.061C64.044 279.447 67.864 271.109 71.333 266.671C87.479 246.011 117.833 221.647 129.112 214.499C130.932 213.266 132.841 212.17 134.824 211.22C138.678 209.553 140.645 210.81 146.877 214.909C150.315 217.238 153.187 220.307 155.282 223.893C157.378 227.478 158.642 231.487 158.984 235.625C159.917 247.952 153.6 259.814 145.209 268.886Z" fill="#34190D"/>
<path d="M125.727 310.599C125.727 310.599 51.309 305.528 41.799 333.477C29.845 368.61 140.555 378.385 190.547 375.843V316.531L125.727 310.599Z" fill="#D2691E"/>
<path d="M241.06 310.599C241.06 310.599 305.653 305.528 312.026 331.579C320.717 367.121 228.417 378.386 185.795 375.843V316.531L241.06 310.599Z" fill="#FFA332"/>
<path d="M99.885 336.833C98.84 331.446 94.285 325.849 89.585 323.391C89.4686 323.327 89.3331 323.307 89.2031 323.334C89.073 323.361 88.9568 323.433 88.8756 323.538C88.7944 323.643 88.7534 323.774 88.7601 323.907C88.7667 324.04 88.8206 324.166 88.912 324.262C91.1034 326.247 93.0931 328.443 94.852 330.82C95.926 332.547 96.8651 334.354 97.661 336.226L97.589 336.206C94.8172 333.194 91.7569 330.46 88.452 328.045C85.817 326.027 81.684 321.992 78.215 322.013C78.0753 322.017 77.9404 322.064 77.8291 322.149C77.7179 322.233 77.636 322.35 77.595 322.484L77.395 322.972C77.286 323.239 77.595 323.483 77.841 323.419C79.108 323.081 81.902 325.904 82.919 326.635C85.071 328.181 87.188 329.78 89.23 331.469C90.615 332.615 91.939 333.826 93.27 335.028L87.592 333.477C87.592 333.477 48.057 320.824 41.792 333.477C41.792 333.477 31.243 365.677 72.762 376.149C104.779 384.226 192.286 384.192 192.286 384.192L196.472 363.211L99.885 336.833Z" fill="#D2691E"/>
<path d="M201.63 205.25C201.63 205.25 189.917 229.127 177.037 226.417C164.157 223.707 153.652 203.234 153.652 203.234L164.359 197.612C165.061 197.248 165.659 196.712 166.098 196.054C166.537 195.396 166.802 194.637 166.868 193.849L166.98 192.46L168.01 179.827L186.646 181.886L187.246 189.031L187.739 194.765C187.802 195.508 188.042 196.226 188.44 196.857C188.838 197.489 189.381 198.016 190.024 198.394L201.63 205.25Z" fill="#F8A38C"/>
<path d="M187.25 189.033C185.193 190.858 182.762 192.21 180.127 192.996C177.492 193.781 174.717 193.981 171.997 193.58C170.287 193.405 168.603 193.029 166.98 192.46L168.01 179.827L186.646 181.886L187.25 189.033Z" fill="#F2745F"/>
<path d="M208.383 147.574C208.1 150.468 207.213 153.27 205.78 155.799C204.347 158.329 202.4 160.53 200.064 162.261C199.841 162.43 199.619 162.6 199.394 162.74C198.148 163.606 196.851 164.395 195.509 165.102C186.529 169.937 175.652 171.082 165.581 169.084C162.03 168.484 158.621 167.229 155.528 165.384C146.375 159.55 144.319 148.164 148.562 138.863C155.687 123.189 172.945 117.126 174.205 118.163C169.02 113.876 163.478 110.022 164.073 102.363C164.264 99.6406 165.322 97.0508 167.091 94.973C170.928 90.586 177.32 89.739 183.122 89.182C182.047 89.282 179.616 83.541 179.268 82.582C178.371 79.6265 178.564 76.4474 179.812 73.622C180.777 71.1808 182.277 68.9866 184.2 67.1999C186.123 65.4132 188.422 64.0793 190.927 63.296C194.186 62.4364 197.573 62.1685 200.927 62.505C204.569 62.736 208.361 63.299 211.327 65.428C213.891 58.12 220.015 51.955 227.547 50.151C235.079 48.347 243.747 51.401 247.847 57.976C252.201 64.968 250.564 74.894 244.603 80.576C238.642 86.258 229.121 87.548 221.578 84.237C222.644 87.9847 222.501 91.9729 221.171 95.635C219.841 99.2972 217.39 102.447 214.168 104.637C210.807 106.759 206.841 107.713 202.883 107.351C201.262 107.214 193.835 104.83 193.383 103.273C193.834 104.881 193.908 106.571 193.598 108.212C193.288 109.853 192.603 111.4 191.596 112.732C190.476 114.189 186.225 115.732 185.871 117.156C185.413 118.999 187.871 119.633 189.076 120.256C192.18 121.788 195.125 123.622 197.87 125.731C204.601 131.1 209.2 138.727 208.383 147.574Z" fill="#34190D"/>
<path d="M155.045 147.018C157.56 141.434 176.588 135.944 176.588 135.944C176.588 135.944 195.274 140.607 197.619 146.265C197.619 146.265 199.958 157.722 197.987 167.416C196.016 177.11 190.658 189.79 175.772 189.564C160.886 189.338 155.917 176.499 154.241 166.75C152.565 157.001 155.045 147.018 155.045 147.018Z" fill="#F8A38C"/>
<path d="M177.904 167.065C177.908 167.066 177.912 167.068 177.915 167.072C177.917 167.075 177.919 167.079 177.919 167.083C177.919 167.088 177.917 167.092 177.915 167.095C177.912 167.099 177.908 167.101 177.904 167.102C177.9 167.101 177.896 167.099 177.893 167.095C177.891 167.092 177.889 167.088 177.889 167.083C177.889 167.079 177.891 167.075 177.893 167.072C177.896 167.068 177.9 167.066 177.904 167.065Z" fill="#3F3E79"/>
<path d="M198.529 158.58C198.529 158.58 198.729 151.406 194.878 148.448C192.699 146.773 181.007 144.759 177.141 135.848C177.141 135.848 173.941 144.837 160.574 147.014C160.574 147.014 154.256 146.793 153.919 157.964C153.6 157.408 152.736 156.495 152.629 155.906C152.507 155.227 153.111 154.56 153.07 153.865C152.998 153.464 152.836 153.085 152.595 152.757C152.067 151.696 151.83 150.514 151.909 149.332C151.989 148.149 152.38 147.009 153.045 146.028C154.406 144.079 156.293 142.556 158.486 141.638C160.625 140.638 162.906 139.972 165.095 139.086C166.5 138.573 167.808 137.825 168.963 136.873C173.523 132.835 174.678 125.687 182.417 127.704L193.646 130.632L200.276 134.618L201.163 147.211C201.163 147.211 201.971 155.266 198.529 158.58Z" fill="#34190D"/>
<path d="M184.409 115.995C180.811 115.27 177.111 115.202 173.488 115.795C173.037 115.851 172.626 116.081 172.342 116.435C172.057 116.789 171.922 117.24 171.965 117.693C172.007 118.145 172.225 118.563 172.57 118.858C172.916 119.152 173.363 119.301 173.816 119.272C177.123 119.209 180.427 119.534 183.659 120.239C186.339 120.886 187.157 116.472 184.409 115.995Z" fill="#FFA332"/>
<path d="M197.808 159.209C197.808 159.209 201.508 155.467 203.908 157.934C206.308 160.401 204.132 173.134 195.783 172.7L197.808 159.209Z" fill="#F8A38C"/>
<path d="M200.795 162.415C199.138 162.174 196.764 164.915 196.972 166.521C196.979 166.579 197 166.635 197.035 166.682C197.069 166.729 197.116 166.767 197.169 166.791C197.222 166.815 197.281 166.825 197.339 166.82C197.398 166.815 197.454 166.795 197.502 166.762C197.948 166.438 198.329 166.033 198.626 165.568C198.748 165.899 198.942 166.199 199.194 166.446C199.447 166.693 199.75 166.881 200.084 166.996C200.174 167.011 200.268 166.997 200.349 166.954C200.43 166.912 200.496 166.844 200.535 166.761C200.607 166.55 200.637 166.326 200.622 166.104C200.607 165.881 200.548 165.663 200.448 165.464C200.348 165.264 200.209 165.086 200.039 164.941C199.87 164.796 199.673 164.686 199.46 164.618C200.066 164.1 200.789 163.798 201.126 163.05C201.154 162.987 201.168 162.919 201.166 162.85C201.164 162.781 201.147 162.713 201.115 162.652C201.083 162.591 201.038 162.538 200.982 162.497C200.927 162.456 200.863 162.428 200.795 162.415V162.415Z" fill="#F2745F"/>
<path d="M226.517 214.701C226.517 214.715 211.155 309.062 211.155 309.062C200.364 315.225 188.162 318.492 175.735 318.546C163.584 318.596 151.643 315.377 141.163 309.226L135.287 266.974C135.287 266.974 125.311 252.844 130.695 244.946C141.518 229.013 134.767 211.057 134.767 211.057L146.642 205.625C149.299 204.41 151.96 203.203 154.613 201.979C157.843 200.49 159.581 197.379 163.356 196.842C163.801 199.042 163.903 201.35 164.796 203.414C166.733 207.89 172.196 210.145 177.009 209.37C183.279 208.36 191.014 202.162 190.009 195.137C192.234 194.962 194.717 194.865 196.419 196.31C198.642 198.198 198.609 201.625 201.006 203.375C204.106 205.638 208.793 206.851 212.306 208.407C213.3 208.847 226.617 214.086 226.517 214.701Z" fill="#34190D"/>
<path d="M177.448 260.613C180.829 262.537 184.614 263.641 188.499 263.836C192.253 263.86 195.574 262.297 199.204 261.827C199.421 261.798 199.51 262.104 199.375 262.24C194.092 267.552 181.843 266.716 176.583 261.734C176.466 261.61 176.397 261.448 176.389 261.278C176.381 261.107 176.434 260.94 176.538 260.805C176.642 260.67 176.791 260.576 176.958 260.541C177.124 260.506 177.298 260.532 177.448 260.613V260.613Z" fill="#392279"/>
<path d="M154.541 158.55C154.541 158.55 150.954 154.697 148.486 157.09C146.018 159.483 147.799 172.273 156.158 172.097L154.541 158.55Z" fill="#F8A38C"/>
<path d="M151.59 161.592C152.262 162.219 152.817 162.96 153.228 163.782C153.57 164.4 154.141 165.288 153.918 166.012C153.906 166.052 153.884 166.089 153.856 166.12C153.827 166.151 153.792 166.175 153.752 166.19C153.713 166.206 153.671 166.212 153.629 166.208C153.587 166.205 153.546 166.192 153.51 166.171C153.088 165.802 152.776 165.322 152.61 164.786C152.482 164.79 152.354 164.808 152.23 164.839C152.047 164.894 151.877 164.986 151.73 165.108C151.651 165.177 151.549 165.213 151.444 165.208C151.34 165.204 151.241 165.16 151.168 165.084C151.095 165.009 151.054 164.909 151.052 164.805C151.051 164.7 151.09 164.599 151.161 164.522C151.437 164.235 151.809 164.061 152.206 164.033C151.79 163.374 151.289 162.785 150.861 162.133C150.556 161.669 151.217 161.286 151.59 161.592Z" fill="#F2745F"/>
<path d="M180.187 153.336C180.911 151.508 183.071 151.592 184.525 151.636C186.418 151.675 188.24 152.359 189.691 153.576C190.627 154.354 190.123 156.517 189.059 156.159C187.605 155.532 186.053 155.163 184.472 155.067C183.165 155.099 182.004 155.996 180.708 155.306C180.408 155.087 180.193 154.772 180.098 154.413C180.003 154.055 180.035 153.674 180.187 153.336V153.336Z" fill="#34190D"/>
<path d="M169.924 153.34C169.316 151.47 167.156 151.417 165.702 151.371C163.81 151.29 161.948 151.858 160.423 152.981C159.441 153.698 159.806 155.889 160.891 155.599C162.382 155.065 163.954 154.795 165.538 154.799C166.838 154.914 167.943 155.882 169.28 155.275C169.593 155.076 169.829 154.774 169.946 154.422C170.063 154.07 170.055 153.687 169.924 153.34V153.34Z" fill="#34190D"/>
<path d="M169.417 172.986C171.58 176.221 177.659 175.479 180.079 172.876C180.139 172.821 180.215 172.787 180.296 172.779C180.376 172.771 180.458 172.789 180.527 172.831C180.597 172.873 180.651 172.936 180.681 173.011C180.712 173.086 180.718 173.169 180.697 173.248C180.008 175.648 176.874 176.214 174.735 176.432C172.123 176.698 169.625 175.965 168.143 173.705C167.627 172.909 168.9 172.204 169.417 172.986Z" fill="#F2745F"/>
<path d="M173.233 166.293C173.863 165.147 174.146 163.843 174.046 162.539C174.035 162.314 174.37 162.289 174.429 162.494C174.774 163.628 174.729 164.845 174.302 165.951C174.136 166.379 173.588 166.942 173.53 167.343C173.437 167.978 174.782 168.598 175.385 168.343C175.459 168.305 175.544 168.294 175.625 168.313C175.707 168.331 175.778 168.378 175.828 168.445C175.878 168.512 175.903 168.594 175.898 168.677C175.893 168.76 175.859 168.839 175.801 168.899C175.286 169.42 174.701 169.193 174.066 168.984C173.551 168.816 172.637 168.641 172.4 168.062C172.127 167.396 172.934 166.803 173.233 166.293Z" fill="#F2745F"/>
<path d="M168.275 158.502C167.11 158.442 166.975 160.015 165.975 160.383C165.189 160.586 164.36 160.546 163.598 160.267C162.835 159.989 162.176 159.485 161.706 158.823C161.664 158.781 161.611 158.751 161.553 158.736C161.496 158.72 161.435 158.72 161.378 158.735C161.32 158.75 161.267 158.78 161.225 158.822C161.182 158.864 161.151 158.916 161.135 158.973C160.84 161.104 163.401 162.117 165.176 162.034C165.579 162.032 165.977 161.948 166.346 161.785C166.714 161.622 167.045 161.385 167.318 161.089C167.845 160.53 168.652 159.672 168.657 158.889C168.656 158.788 168.616 158.69 168.544 158.618C168.473 158.546 168.376 158.504 168.275 158.502Z" fill="#34190D"/>
<path d="M187.538 158.502C186.373 158.442 186.238 160.015 185.238 160.383C184.452 160.587 183.623 160.547 182.861 160.268C182.099 159.989 181.439 159.485 180.97 158.823C180.928 158.781 180.875 158.751 180.818 158.736C180.76 158.72 180.699 158.72 180.642 158.735C180.584 158.75 180.531 158.78 180.489 158.822C180.446 158.864 180.415 158.916 180.399 158.973C180.104 161.104 182.664 162.117 184.439 162.034C184.842 162.032 185.24 161.948 185.609 161.785C185.978 161.622 186.309 161.385 186.582 161.089C187.109 160.53 187.915 159.672 187.921 158.889C187.92 158.788 187.879 158.691 187.807 158.618C187.736 158.546 187.639 158.505 187.538 158.502V158.502Z" fill="#34190D"/>
<path d="M137.756 318.607C129.511 320.967 120.867 321.601 112.366 320.47C111.437 320.37 110.466 320.197 109.519 320.049C107.971 319.787 106.377 319.46 104.819 319.089C98.9747 317.643 93.3397 315.455 88.052 312.576C86.58 311.803 85.152 310.963 83.761 310.076C79.6925 307.523 75.9142 304.534 72.493 301.162C71.95 300.626 71.423 300.062 70.893 299.509C69.9301 298.459 69.0337 297.35 68.209 296.188C65.009 291.888 62.988 287.132 63.75 283.02C64.863 277.129 71.599 274.314 78.684 274.72C85.799 275.142 93.216 278.185 100.308 281.437C106.858 284.418 113.75 287.632 120.456 291.117L120.487 291.138C121.401 291.596 122.299 292.077 123.228 292.578C127.457 294.835 131.562 297.207 135.466 299.739C144.852 305.813 146.917 315.96 137.756 318.607Z" fill="#34190D"/>
<path d="M182.144 361.508L131.873 378.554L125.192 385.661L146.556 392.945L187.902 388.024L182.144 361.508Z" fill="#F8A38C"/>
<path d="M312.396 333.477C310.072 321.268 265.635 333.477 265.635 333.477L260.758 334.99C264.358 330.765 271.121 328.535 275.574 326.059C275.678 325.994 275.755 325.894 275.792 325.778C275.829 325.661 275.823 325.535 275.775 325.422C275.728 325.31 275.642 325.217 275.533 325.162C275.423 325.107 275.298 325.093 275.179 325.122C270.109 326.622 260.979 329.973 258.574 335.668L258.082 335.821C259.144 333.486 260.476 331.284 262.053 329.261C264.727 325.846 268.1 323.382 271.22 320.431C271.685 319.991 271.203 319.018 270.555 319.289C265.978 321.206 262.316 325.105 259.455 329.069C258.209 330.795 255.945 333.882 255.002 336.776L178.616 360.476L184.548 390.21L280.462 376.147C321.982 365.675 312.396 333.477 312.396 333.477Z" fill="#D2691E"/>
<path d="M155.296 370.611C155.296 370.611 90.445 376.198 90.103 392.945C89.761 409.692 140.138 399.345 159.081 391.454C159.081 391.454 139.928 391.176 138.532 384.192C137.136 377.208 155.296 370.611 155.296 370.611Z" fill="#C8581A"/>
<path d="M123.568 257.914H234.512C234.97 257.915 235.409 258.097 235.733 258.421C236.057 258.745 236.239 259.185 236.239 259.643V337.769H121.839V259.643C121.839 259.184 122.021 258.745 122.345 258.42C122.67 258.096 123.109 257.914 123.568 257.914V257.914Z" fill="#D3D2D1"/>
<path d="M121.839 337.77H236.239V343.527C236.239 343.904 236.089 344.265 235.823 344.531C235.557 344.797 235.196 344.947 234.819 344.947H123.258C123.072 344.947 122.887 344.91 122.715 344.839C122.543 344.768 122.386 344.663 122.254 344.531C122.122 344.399 122.018 344.243 121.947 344.07C121.875 343.898 121.839 343.713 121.839 343.527V337.77Z" fill="#A4A4A4"/>
<path d="M152.378 337.77H137.984V340.836H152.378V337.77Z" fill="white"/>
<path d="M221.932 337.77H207.538V340.836H221.932V337.77Z" fill="white"/>
<path d="M164.765 294.686C165.063 293.868 165.541 293.128 166.163 292.52C166.785 291.911 167.536 291.45 168.36 291.17C169.56 290.883 170.826 291.209 172.051 291.06C173.883 290.837 175.4 289.601 176.951 288.604C178.502 287.607 180.451 286.797 182.151 287.511C183.997 288.284 184.744 290.511 184.885 292.511C185.026 294.511 184.793 296.596 185.568 298.441C185.999 299.468 186.72 300.356 187.114 301.397C187.351 302.183 187.406 303.012 187.274 303.822C187.141 304.632 186.826 305.401 186.351 306.071C185.877 306.74 185.256 307.293 184.535 307.685C183.815 308.078 183.014 308.302 182.194 308.338C180.786 308.304 179.427 307.693 178.02 307.749C173.175 307.938 170.736 312.8 166.605 307.987C165.119 306.146 164.162 303.935 163.838 301.592C163.514 299.249 163.834 296.861 164.765 294.686V294.686Z" fill="white"/>
<path d="M171.289 231.115C171.474 228.999 171.06 228.215 170.448 226.125C168.807 220.518 168.978 218.125 170.275 212.808C170.307 212.678 170.297 212.541 170.245 212.417C170.192 212.294 170.102 212.19 169.986 212.123C169.87 212.055 169.735 212.027 169.602 212.042C169.469 212.058 169.344 212.116 169.247 212.208C162.331 218.348 169.076 225.242 167.823 232.584C166.708 239.12 164.295 243.546 169.397 249.184C169.962 249.808 171.232 249.152 170.882 248.32C169.313 244.596 168.332 241.207 169.347 237.102C169.85 235.062 171.103 233.243 171.289 231.115Z" fill="white"/>
<path d="M186.024 246.786C180.684 242.651 185.633 235.111 183.949 229.522C182.136 223.499 177.049 220.583 179.513 213.499C179.54 213.392 179.535 213.28 179.499 213.176C179.463 213.072 179.397 212.981 179.31 212.914C179.223 212.847 179.118 212.807 179.008 212.799C178.899 212.791 178.789 212.815 178.693 212.869C172.747 216.578 177.98 223.502 180.03 227.893C182.73 233.662 179.465 237.914 180.735 243.312C180.927 244.472 181.449 245.552 182.237 246.425C183.025 247.297 184.047 247.925 185.182 248.233C185.964 248.495 186.717 247.317 186.024 246.786Z" fill="white"/>
<path d="M155.89 187.766C156.003 187.688 156.086 187.572 156.124 187.44C156.163 187.308 156.155 187.166 156.101 187.039C156.047 186.912 155.952 186.808 155.83 186.743C155.708 186.678 155.568 186.658 155.433 186.684C151.557 187.853 147.363 189.919 145.853 193.984C145.211 195.876 145.203 197.925 145.83 199.821C146.456 201.718 147.684 203.359 149.327 204.495C149.827 204.866 150.532 204.137 150.184 203.638C148.111 200.659 146.303 196.777 148.484 193.343C150.13 190.751 153.348 189.302 155.89 187.766Z" fill="white"/>
<path d="M196.458 188.256C196.326 188.223 196.186 188.239 196.065 188.3C195.943 188.361 195.847 188.464 195.794 188.589C195.741 188.715 195.735 188.855 195.776 188.985C195.817 189.114 195.903 189.225 196.019 189.297C198.57 190.545 200.54 192.731 201.519 195.397C202.555 198.616 201.452 201.262 200.135 204.154C200.025 204.357 199.991 204.593 200.039 204.819C200.087 205.045 200.214 205.246 200.397 205.387C200.58 205.528 200.807 205.6 201.037 205.589C201.268 205.578 201.487 205.485 201.656 205.327C207.434 200.002 203.617 189.886 196.458 188.256Z" fill="white"/>
<path d="M103.559 0H2.595C1.16182 0 0 1.16182 0 2.595V127.447C0 128.88 1.16182 130.042 2.595 130.042H103.559C104.992 130.042 106.154 128.88 106.154 127.447V2.595C106.154 1.16182 104.992 0 103.559 0Z" fill="#EBE6DC"/>
<path d="M58.817 126.277L99.017 172.713L87.107 126.277H58.817Z" fill="#EBE6DC"/>
<path d="M23.535 30.179H73.673C73.9236 30.179 74.164 30.2786 74.3412 30.4558C74.5184 30.633 74.618 30.8734 74.618 31.124V90.672C74.6177 90.9225 74.518 91.1626 74.3409 91.3396C74.1637 91.5166 73.9235 91.616 73.673 91.616H23.535V30.179Z" fill="#C8581A"/>
<path opacity="0.544" d="M29.748 30.179H23.535V91.616H29.748V30.179Z" fill="#E6DFD3"/>
<path d="M57.533 30.179V48.127L62.533 41.742L67.193 48.127V30.179H57.533Z" fill="#FFA332"/>
<path d="M22.447 104.501C23.3403 104.501 24.0403 104.714 24.547 105.141C25.0536 105.568 25.307 106.154 25.307 106.901C25.307 107.648 25.0536 108.234 24.547 108.661C24.0403 109.081 23.3403 109.291 22.447 109.291H20.567V111.501H19.827V104.501H22.447ZM22.427 108.641C23.1203 108.641 23.6503 108.491 24.017 108.191C24.3836 107.884 24.567 107.454 24.567 106.901C24.567 106.334 24.3836 105.901 24.017 105.601C23.6503 105.294 23.1203 105.141 22.427 105.141H20.567V108.641H22.427ZM30.9455 109.631H27.0455L26.2055 111.501H25.4355L28.6355 104.501H29.3655L32.5655 111.501H31.7855L30.9455 109.631ZM30.6755 109.031L28.9955 105.271L27.3155 109.031H30.6755ZM38.5035 111.501L36.9035 109.251C36.7235 109.271 36.5368 109.281 36.3435 109.281H34.4635V111.501H33.7235V104.501H36.3435C37.2368 104.501 37.9368 104.714 38.4435 105.141C38.9501 105.568 39.2035 106.154 39.2035 106.901C39.2035 107.448 39.0635 107.911 38.7835 108.291C38.5101 108.664 38.1168 108.934 37.6035 109.101L39.3135 111.501H38.5035ZM36.3235 108.651C37.0168 108.651 37.5468 108.498 37.9135 108.191C38.2801 107.884 38.4635 107.454 38.4635 106.901C38.4635 106.334 38.2801 105.901 37.9135 105.601C37.5468 105.294 37.0168 105.141 36.3235 105.141H34.4635V108.651H36.3235ZM40.95 104.501H43.8C44.54 104.501 45.1934 104.651 45.76 104.951C46.3267 105.244 46.7667 105.658 47.08 106.191C47.3934 106.718 47.55 107.321 47.55 108.001C47.55 108.681 47.3934 109.288 47.08 109.821C46.7667 110.348 46.3267 110.761 45.76 111.061C45.1934 111.354 44.54 111.501 43.8 111.501H40.95V104.501ZM43.76 110.861C44.3734 110.861 44.91 110.741 45.37 110.501C45.83 110.254 46.1867 109.918 46.44 109.491C46.6934 109.058 46.82 108.561 46.82 108.001C46.82 107.441 46.6934 106.948 46.44 106.521C46.1867 106.088 45.83 105.751 45.37 105.511C44.91 105.264 44.3734 105.141 43.76 105.141H41.69V110.861H43.76ZM52.0317 111.561C51.1251 111.561 50.4184 111.301 49.9117 110.781C49.4051 110.261 49.1517 109.504 49.1517 108.511V104.501H49.8917V108.481C49.8917 109.294 50.0751 109.901 50.4417 110.301C50.8084 110.701 51.3384 110.901 52.0317 110.901C52.7317 110.901 53.2651 110.701 53.6317 110.301C53.9984 109.901 54.1817 109.294 54.1817 108.481V104.501H54.9017V108.511C54.9017 109.504 54.6484 110.261 54.1417 110.781C53.6417 111.301 52.9384 111.561 52.0317 111.561ZM60.1917 111.561C59.4983 111.561 58.8683 111.408 58.3017 111.101C57.7417 110.788 57.3017 110.361 56.9817 109.821C56.6683 109.281 56.5117 108.674 56.5117 108.001C56.5117 107.328 56.6683 106.721 56.9817 106.181C57.3017 105.641 57.7417 105.218 58.3017 104.911C58.8683 104.598 59.4983 104.441 60.1917 104.441C60.885 104.441 61.5083 104.594 62.0617 104.901C62.6217 105.208 63.0617 105.634 63.3817 106.181C63.7017 106.721 63.8617 107.328 63.8617 108.001C63.8617 108.674 63.7017 109.284 63.3817 109.831C63.0617 110.371 62.6217 110.794 62.0617 111.101C61.5083 111.408 60.885 111.561 60.1917 111.561ZM60.1917 110.901C60.745 110.901 61.245 110.778 61.6917 110.531C62.1383 110.278 62.4883 109.931 62.7417 109.491C62.995 109.044 63.1217 108.548 63.1217 108.001C63.1217 107.454 62.995 106.961 62.7417 106.521C62.4883 106.074 62.1383 105.728 61.6917 105.481C61.245 105.228 60.745 105.101 60.1917 105.101C59.6383 105.101 59.135 105.228 58.6817 105.481C58.235 105.728 57.8817 106.074 57.6217 106.521C57.3683 106.961 57.2417 107.454 57.2417 108.001C57.2417 108.548 57.3683 109.044 57.6217 109.491C57.8817 109.931 58.235 110.278 58.6817 110.531C59.135 110.778 59.6383 110.901 60.1917 110.901ZM67.4503 111.561C66.9303 111.561 66.4303 111.478 65.9503 111.311C65.477 111.144 65.1103 110.924 64.8503 110.651L65.1403 110.081C65.3937 110.334 65.7303 110.541 66.1503 110.701C66.5703 110.854 67.0037 110.931 67.4503 110.931C68.077 110.931 68.547 110.818 68.8603 110.591C69.1737 110.358 69.3303 110.058 69.3303 109.691C69.3303 109.411 69.2437 109.188 69.0703 109.021C68.9037 108.854 68.697 108.728 68.4503 108.641C68.2037 108.548 67.8603 108.448 67.4203 108.341C66.8937 108.208 66.4737 108.081 66.1603 107.961C65.847 107.834 65.577 107.644 65.3503 107.391C65.1303 107.138 65.0203 106.794 65.0203 106.361C65.0203 106.008 65.1137 105.688 65.3003 105.401C65.487 105.108 65.7737 104.874 66.1603 104.701C66.547 104.528 67.027 104.441 67.6003 104.441C68.0003 104.441 68.3903 104.498 68.7703 104.611C69.157 104.718 69.4903 104.868 69.7703 105.061L69.5203 105.651C69.227 105.458 68.9137 105.314 68.5803 105.221C68.247 105.121 67.9203 105.071 67.6003 105.071C66.987 105.071 66.5237 105.191 66.2103 105.431C65.9037 105.664 65.7503 105.968 65.7503 106.341C65.7503 106.621 65.8337 106.848 66.0003 107.021C66.1737 107.188 66.387 107.318 66.6403 107.411C66.9003 107.498 67.247 107.594 67.6803 107.701C68.1937 107.828 68.607 107.954 68.9203 108.081C69.2403 108.201 69.5103 108.388 69.7303 108.641C69.9503 108.888 70.0603 109.224 70.0603 109.651C70.0603 110.004 69.9637 110.328 69.7703 110.621C69.5837 110.908 69.2937 111.138 68.9003 111.311C68.507 111.478 68.0237 111.561 67.4503 111.561ZM71.6727 104.501H72.4127V111.501H71.6727V104.501ZM77.5103 111.561C76.6036 111.561 75.8969 111.301 75.3903 110.781C74.8836 110.261 74.6303 109.504 74.6303 108.511V104.501H75.3703V108.481C75.3703 109.294 75.5536 109.901 75.9203 110.301C76.2869 110.701 76.8169 110.901 77.5103 110.901C78.2103 110.901 78.7436 110.701 79.1103 110.301C79.4769 109.901 79.6603 109.294 79.6603 108.481V104.501H80.3803V108.511C80.3803 109.504 80.1269 110.261 79.6203 110.781C79.1203 111.301 78.4169 111.561 77.5103 111.561ZM82.3502 104.501H83.1902L83.0402 109.401H82.4902L82.3502 104.501ZM82.7702 111.551C82.6235 111.551 82.4969 111.501 82.3902 111.401C82.2902 111.294 82.2402 111.171 82.2402 111.031C82.2402 110.884 82.2902 110.764 82.3902 110.671C82.4902 110.571 82.6169 110.521 82.7702 110.521C82.9169 110.521 83.0402 110.571 83.1402 110.671C83.2402 110.764 83.2902 110.884 83.2902 111.031C83.2902 111.171 83.2402 111.294 83.1402 111.401C83.0402 111.501 82.9169 111.551 82.7702 111.551Z" fill="#34190D"/>
<path d="M18.797 14.023C19.6903 14.023 20.3903 14.2363 20.897 14.663C21.4037 15.0897 21.657 15.6763 21.657 16.423C21.657 17.1697 21.4037 17.7563 20.897 18.183C20.3903 18.603 19.6903 18.813 18.797 18.813H16.917V21.023H16.177V14.023H18.797ZM18.777 18.163C19.4703 18.163 20.0003 18.013 20.367 17.713C20.7337 17.4063 20.917 16.9763 20.917 16.423C20.917 15.8563 20.7337 15.423 20.367 15.123C20.0003 14.8163 19.4703 14.663 18.777 14.663H16.917V18.163H18.777ZM28.2071 20.383V21.023H23.2571V14.023H28.0571V14.663H23.9971V17.153H27.6171V17.783H23.9971V20.383H28.2071ZM34.7265 21.023L33.1265 18.773C32.9465 18.793 32.7599 18.803 32.5665 18.803H30.6865V21.023H29.9465V14.023H32.5665C33.4599 14.023 34.1599 14.2363 34.6665 14.663C35.1732 15.0897 35.4265 15.6763 35.4265 16.423C35.4265 16.9697 35.2865 17.433 35.0065 17.813C34.7332 18.1863 34.3399 18.4563 33.8265 18.623L35.5365 21.023H34.7265ZM32.5465 18.173C33.2399 18.173 33.7699 18.0197 34.1365 17.713C34.5032 17.4063 34.6865 16.9763 34.6865 16.423C34.6865 15.8563 34.5032 15.423 34.1365 15.123C33.7699 14.8163 33.2399 14.663 32.5465 14.663H30.6865V18.173H32.5465ZM39.1031 21.083C38.5831 21.083 38.0831 20.9997 37.6031 20.833C37.1297 20.6663 36.7631 20.4463 36.5031 20.173L36.7931 19.603C37.0464 19.8563 37.3831 20.063 37.8031 20.223C38.2231 20.3763 38.6564 20.453 39.1031 20.453C39.7297 20.453 40.1997 20.3397 40.5131 20.113C40.8264 19.8797 40.9831 19.5797 40.9831 19.213C40.9831 18.933 40.8964 18.7097 40.7231 18.543C40.5564 18.3763 40.3497 18.2497 40.1031 18.163C39.8564 18.0697 39.5131 17.9697 39.0731 17.863C38.5464 17.7297 38.1264 17.603 37.8131 17.483C37.4997 17.3563 37.2297 17.1663 37.0031 16.913C36.7831 16.6597 36.6731 16.3163 36.6731 15.883C36.6731 15.5297 36.7664 15.2097 36.9531 14.923C37.1397 14.6297 37.4264 14.3963 37.8131 14.223C38.1997 14.0497 38.6797 13.963 39.2531 13.963C39.6531 13.963 40.0431 14.0197 40.4231 14.133C40.8097 14.2397 41.1431 14.3897 41.4231 14.583L41.1731 15.173C40.8797 14.9797 40.5664 14.8363 40.2331 14.743C39.8997 14.643 39.5731 14.593 39.2531 14.593C38.6397 14.593 38.1764 14.713 37.8631 14.953C37.5564 15.1863 37.4031 15.4897 37.4031 15.863C37.4031 16.143 37.4864 16.3697 37.6531 16.543C37.8264 16.7097 38.0397 16.8397 38.2931 16.933C38.5531 17.0197 38.8997 17.1163 39.3331 17.223C39.8464 17.3497 40.2597 17.4763 40.5731 17.603C40.8931 17.723 41.1631 17.9097 41.3831 18.163C41.6031 18.4097 41.7131 18.7463 41.7131 19.173C41.7131 19.5263 41.6164 19.8497 41.4231 20.143C41.2364 20.4297 40.9464 20.6597 40.5531 20.833C40.1597 20.9997 39.6764 21.083 39.1031 21.083ZM45.4954 17.733L44.0654 19.183V21.023H43.3254V14.023H44.0654V18.253L48.1754 14.023H49.0254L45.9954 17.193L49.2354 21.023H48.3554L45.4954 17.733ZM54.5514 19.153H50.6514L49.8114 21.023H49.0414L52.2414 14.023H52.9714L56.1714 21.023H55.3914L54.5514 19.153ZM54.2814 18.553L52.6014 14.793L50.9214 18.553H54.2814ZM57.3293 14.023H58.0693V21.023H57.3293V14.023ZM63.3869 21.083C62.6936 21.083 62.0669 20.9297 61.5069 20.623C60.9536 20.3163 60.5169 19.893 60.1969 19.353C59.8836 18.8063 59.7269 18.1963 59.7269 17.523C59.7269 16.8497 59.8836 16.243 60.1969 15.703C60.5169 15.1563 60.9569 14.7297 61.5169 14.423C62.0769 14.1163 62.7036 13.963 63.3969 13.963C63.9169 13.963 64.3969 14.0497 64.8369 14.223C65.2769 14.3963 65.6502 14.6497 65.9569 14.983L65.4869 15.453C64.9402 14.8997 64.2502 14.623 63.4169 14.623C62.8636 14.623 62.3602 14.7497 61.9069 15.003C61.4536 15.2563 61.0969 15.603 60.8369 16.043C60.5836 16.483 60.4569 16.9763 60.4569 17.523C60.4569 18.0697 60.5836 18.563 60.8369 19.003C61.0969 19.443 61.4536 19.7897 61.9069 20.043C62.3602 20.2963 62.8636 20.423 63.4169 20.423C64.2569 20.423 64.9469 20.143 65.4869 19.583L65.9569 20.053C65.6502 20.3863 65.2736 20.643 64.8269 20.823C64.3869 20.9963 63.9069 21.083 63.3869 21.083ZM64.9569 12.213L63.6669 13.453H62.9469L61.6569 12.213H62.3169L63.3069 13.033L64.2969 12.213H64.9569ZM67.5344 14.023H68.2744V21.023H67.5344V14.023ZM74.942 19.153H71.042L70.202 21.023H69.432L72.632 14.023H73.362L76.562 21.023H75.782L74.942 19.153ZM74.672 18.553L72.992 14.793L71.312 18.553H74.672ZM80.3935 21.083C79.4868 21.083 78.7801 20.823 78.2735 20.303C77.7668 19.783 77.5135 19.0263 77.5135 18.033V14.023H78.2535V18.003C78.2535 18.8163 78.4368 19.423 78.8035 19.823C79.1701 20.223 79.7001 20.423 80.3935 20.423C81.0935 20.423 81.6268 20.223 81.9935 19.823C82.3601 19.423 82.5435 18.8163 82.5435 18.003V14.023H83.2635V18.033C83.2635 19.0263 83.0101 19.783 82.5035 20.303C82.0035 20.823 81.3001 21.083 80.3935 21.083ZM85.2334 14.023H86.0734L85.9234 18.923H85.3734L85.2334 14.023ZM85.6534 21.073C85.5067 21.073 85.3801 21.023 85.2734 20.923C85.1734 20.8163 85.1234 20.693 85.1234 20.553C85.1234 20.4063 85.1734 20.2863 85.2734 20.193C85.3734 20.093 85.5001 20.043 85.6534 20.043C85.8001 20.043 85.9234 20.093 86.0234 20.193C86.1234 20.2863 86.1734 20.4063 86.1734 20.553C86.1734 20.693 86.1234 20.8163 86.0234 20.923C85.9234 21.023 85.8001 21.073 85.6534 21.073Z" fill="#34190D"/>
</g>
<defs>
<clipPath id="clip0_1_2">
<rect width="339.35" height="403.031" fill="white"/>
</clipPath>
</defs>
</svg>
